<?xml version="1.0" encoding="UTF-8" standalone="no"?>
<!-- Created with Inkscape (http://www.inkscape.org/) -->

<svg
   width="1024"
   height="1024"
   viewBox="0 0 270.93334 270.93334"
   version="1.1"
   id="svg1"
   xml:space="preserve"
   inkscape:version="1.4.2 (f4327f4, 2025-05-13)"
   sodipodi:docname="aligna_icon_positive.svg"
   xmlns:inkscape="http://www.inkscape.org/namespaces/inkscape"
   xmlns:sodipodi="http://sodipodi.sourceforge.net/DTD/sodipodi-0.dtd"
   xmlns="http://www.w3.org/2000/svg"
   xmlns:svg="http://www.w3.org/2000/svg"><sodipodi:namedview
     id="namedview1"
     pagecolor="#ffffff"
     bordercolor="#000000"
     borderopacity="0.25"
     inkscape:showpageshadow="2"
     inkscape:pageopacity="0.0"
     inkscape:pagecheckerboard="0"
     inkscape:deskcolor="#d1d1d1"
     inkscape:document-units="px"
     inkscape:zoom="0.35945918"
     inkscape:cx="849.88789"
     inkscape:cy="1100.264"
     inkscape:window-width="1920"
     inkscape:window-height="1009"
     inkscape:window-x="-8"
     inkscape:window-y="-3"
     inkscape:window-maximized="1"
     inkscape:current-layer="layer1" /><defs
     id="defs1" /><g
     inkscape:label="Layer 1"
     inkscape:groupmode="layer"
     id="layer1"
     transform="translate(174.81412,155.67659)"><path
       style="fill:#1f2747;stroke-width:1.24749;fill-opacity:1"
       d="M -62.634895,62.613991 C -75.9176,62.0623 -91.988318,60.751135 -98.778594,59.664786 c -2.178536,-0.348103 -6.486076,-0.945742 -9.572316,-1.32747 -13.36573,-1.653338 -20.7763,-4.3241 -22.84321,-8.232883 l -0.7575,-1.432188 V 31.934558 c 0,-16.50013 0.01,-16.750142 0.69272,-17.618298 1.46306,-1.860006 7.2866,-3.92749 17.2214,-6.1140729 11.07608,-2.437633 19.035556,-3.519214 34.073446,-4.629529 16.870119,-1.2458113 27.759189,-1.6746942 42.415169,-1.670445 28.8958725,0.00471 50.503804,1.600144 69.646909,5.131944 11.631026,2.145563 17.752619,4.2555799 20.098899,6.9278789 l 1.059796,1.207135 -0.09925,16.555857 c -0.09881,16.367295 -0.107681,16.571436 -0.830555,17.92325 -1.713122,3.202581 -5.30047,4.999106 -13.76074,6.89087 -15.422749,3.448451 -31.745121,5.24695 -55.319995,6.095328 -10.312019,0.37112 -36.737774,0.359279 -45.880968,-0.01928 z m 26.983284,-23.657857 c -0.09596,-11.66874 -0.218889,-15.04392 -0.587983,-16.070223 -0.692564,-1.925024 -3.612696,-4.911132 -5.667252,-5.794819 -1.986311,-0.854539 -4.683479,-0.794902 -6.498684,0.14369 -2.587998,1.338389 -4.673182,4.380366 -5.312289,7.749688 -0.192347,1.014065 -0.335081,7.510746 -0.335081,15.254522 v 13.488203 h 9.260953 9.260866 z m -32.505249,0.990424 c -0.04108,-7.398146 -0.15909,-14.062919 -0.261348,-14.810899 -0.5806,-4.251426 -6.161675,-7.738121 -10.234835,-6.39378 -1.759863,0.580744 -3.901254,2.671599 -4.821963,4.708058 -0.772991,1.709601 -0.78102,1.84801 -0.879554,15.144263 l -0.09946,13.418804 1.25476,0.189106 c 0.690187,0.104328 3.557092,0.343662 6.371056,0.532585 2.813875,0.189011 5.636152,0.391536 6.271447,0.450236 2.78592,0.25682 2.485247,1.915859 2.399935,-13.238373 z m 63.3685036,12.910499 1.2379129,-0.206442 -0.00548,-11.757205 c -0.00329,-6.466395 -0.1526482,-12.854589 -0.3266682,-14.195862 -0.7683238,-5.91824 -4.2438722,-9.594719 -9.0703603,-9.594719 -4.598879,0 -7.588582,3.118929 -8.405192,8.76824 -0.180932,1.251193 -0.331784,7.980253 -0.335421,14.953276 l -0.0033,12.678401 7.83937,-0.219658 c 4.3117041,-0.121024 8.3964102,-0.312439 9.0771982,-0.426031 z M 15.593976,51.274643 c 2.269381,-0.255959 5.425699,-0.655524 7.014281,-0.888065 l 2.888145,-0.422474 V 38.199766 c 0,-9.255035 -0.100122,-12.099117 -0.472382,-13.33417 -1.117876,-3.714375 -3.804835,-5.950792 -7.149446,-5.950792 -3.702632,0 -6.476272,2.852307 -7.211284,7.415772 -0.193234,1.199472 -0.346605,7.276 -0.348106,13.780876 -0.0011,10.863317 0.03571,11.6351 0.575309,11.63208 0.317631,-6.79e-4 2.434233,-0.213012 4.703483,-0.468889 z m -113.948365,-12.67278 -0.0941,-12.154551 -0.994366,-1.943528 c -0.664565,-1.298918 -1.467745,-2.276241 -2.421525,-2.946576 -1.27143,-0.893453 -1.68791,-1.002844 -3.81748,-1.002844 -2.09329,0 -2.53676,0.112322 -3.56864,0.898538 -1.38068,1.053141 -2.42239,3.038888 -2.89138,5.511919 -0.18424,0.971519 -0.33501,6.406045 -0.33501,12.076465 V 49.35135 l 5.19876,0.562301 c 2.85933,0.309391 5.42156,0.608281 5.69387,0.664287 0.27232,0.05498 1.13163,0.119457 1.90959,0.140221 l 1.414452,0.03712 z M 51.077547,4.5218801 C 45.695446,1.9526664 29.228971,-1.5956738 15.931872,-3.051816 1.9228189,-4.5858675 -5.2065259,-5.0419148 -20.714762,-5.3963895 c -8.623358,-0.1970339 -15.86447,-0.412849 -16.091388,-0.4793077 -0.317051,-0.092838 -0.412572,-2.2107875 -0.412572,-9.1483648 0,-7.037086 -0.108229,-9.3929 -0.491936,-10.684011 -1.855319,-6.247288 -8.763048,-8.354624 -13.475008,-4.110704 -2.569463,2.314184 -2.680354,2.85822 -2.867234,14.064145 l -0.164972,9.9024405 -6.601534,0.2324865 c -3.630913,0.1279616 -6.787274,0.1698015 -7.014237,0.094229 -0.317257,-0.1074398 -0.412582,-2.3271287 -0.412582,-9.604568 v -9.464781 l -1.567934,-1.566049 c -2.240976,-2.238182 -4.996049,-2.866989 -7.968104,-1.818341 -2.002359,0.706459 -3.537145,2.011547 -4.356691,3.704268 -0.678082,1.400891 -0.73109,2.056543 -0.858576,10.618639 -0.07515,5.0190904 -0.257481,9.2472901 -0.406119,9.3960627 -0.31475,0.3151947 -10.488219,1.85395 -12.340109,1.8665759 l -1.256207,0.00471 0.06343,-8.8414456 c 0.05444,-7.591786 -0.01227,-8.987813 -0.471747,-9.876461 -1.232009,-2.382375 -4.273138,-3.306272 -7.431058,-2.257317 -2.14267,0.71165 -4.41664,3.128575 -4.95499,5.266587 -0.22356,0.88789 -0.37202,4.575908 -0.37202,9.2416031 0,7.2662878 -0.0399,7.7854462 -0.62171,8.09686608 -0.34195,0.1830113 -3.34979,0.9366169 -6.68412,1.6747408 -5.96242,1.31979042 -12.75348,3.01555312 -13.91615,3.47483112 -0.56425,0.222928 -0.58746,-0.382964 -0.49511,-12.9276317 0.0967,-13.1427394 0.0979,-13.1635844 0.88346,-14.6468374 2.10783,-3.980237 5.31543,-6.443004 11.55064,-8.868651 12.4025,-4.824751 28.473697,-8.062628 50.93419,-10.261659 13.046346,-1.277314 31.166208,-1.986087 38.668251,-1.512528 5.398938,0.340695 5.62154,0.54301 7.353437,6.680432 0.702806,2.490991 1.57926,4.980557 1.947522,5.532317 1.266251,1.897439 1.845822,2.009293 12.7576203,2.461119 5.5077139,0.228121 10.4596717,0.310029 11.0043307,0.182087 2.853892,-0.670362 5.043536,-2.820888 6.125361,-6.015813 0.91165,-2.692186 1.321473,-3.374372 2.34616,-3.904256 1.299915,-0.672222 2.244,-0.598344 8.60248,0.673241 10.051395,2.009952 20.486266,5.311892 24.846144,7.86216 2.847889,1.665801 5.7136,4.485766 6.784821,6.676495 l 0.806938,1.650367 0.09344,13.6157887 c 0.05105,7.48867998 -0.02278,13.6037624 -0.164928,13.5890884 -0.141946,-0.01473 -0.852113,-0.310301 -1.578394,-0.65697 z M -131.80678,-35.162843 c -0.0905,-0.235806 -0.12298,-9.556403 -0.0722,-20.712607 l 0.0924,-20.283724 1.07964,-2.067296 c 5.87444,-11.247831 32.120282,-20.806189 66.75174,-24.30993 13.728053,-1.38888 16.767882,-1.06861 18.531032,1.95245 0.528227,0.905283 3.607624,11.336479 8.863301,30.024704 1.121425,3.987648 2.346916,7.682747 2.72312,8.211164 0.894966,1.256679 2.754984,2.026371 6.117309,2.531167 3.036807,0.455904 4.177118,1.116709 4.896005,2.837266 0.619958,1.483334 0.255783,2.921326 -1.024043,4.045182 l -1.069741,0.939224 -14.979867,0.193775 c -30.804638,0.398474 -53.432305,3.205235 -72.413796,8.981962 -4.88592,1.486911 -9.73863,3.458092 -14.97154,6.081294 -2.19883,1.102278 -4.07909,2.003966 -4.17836,2.003966 -0.0991,0 -0.25449,-0.192826 -0.34497,-0.428597 z"
       id="path1" /></g></svg>
